<mxfile host="Electron" agent="Mozilla/5.0 (Windows NT 10.0; Win64; x64) AppleWebKit/537.36 (KHTML, like Gecko) draw.io/26.0.9 Chrome/128.0.6613.186 Electron/32.2.5 Safari/537.36" version="26.0.9">
  <diagram name="Page-1" id="u8AvjQPYg5QzOgjVV90T">
    <mxGraphModel dx="1964" dy="709" grid="1" gridSize="10" guides="1" tooltips="1" connect="1" arrows="1" fold="1" page="1" pageScale="1" pageWidth="850" pageHeight="1100" math="0" shadow="0">
      <root>
        <mxCell id="0" />
        <mxCell id="1" parent="0" />
        <mxCell id="oknRgU-uiOePaTJj_Vg3-1" value="" style="rounded=1;whiteSpace=wrap;html=1;fillColor=none;arcSize=5;" vertex="1" parent="1">
          <mxGeometry x="330" y="170" width="440" height="420" as="geometry" />
        </mxCell>
        <mxCell id="oknRgU-uiOePaTJj_Vg3-2" value="crm_cust_info" style="swimlane;fontStyle=0;childLayout=stackLayout;horizontal=1;startSize=30;horizontalStack=0;resizeParent=1;resizeParentMax=0;resizeLast=0;collapsible=1;marginBottom=0;whiteSpace=wrap;html=1;rounded=1;fillColor=#d5e8d4;strokeColor=#82b366;fontSize=18;" vertex="1" parent="1">
          <mxGeometry x="130" y="420" width="140" height="110" as="geometry" />
        </mxCell>
        <mxCell id="oknRgU-uiOePaTJj_Vg3-3" value="cst_id" style="text;strokeColor=none;fillColor=none;align=left;verticalAlign=middle;spacingLeft=4;spacingRight=4;overflow=hidden;points=[[0,0.5],[1,0.5]];portConstraint=eastwest;rotatable=0;whiteSpace=wrap;html=1;fontSize=18;" vertex="1" parent="oknRgU-uiOePaTJj_Vg3-2">
          <mxGeometry y="30" width="140" height="40" as="geometry" />
        </mxCell>
        <mxCell id="oknRgU-uiOePaTJj_Vg3-4" value="cst_key" style="text;strokeColor=none;fillColor=none;align=left;verticalAlign=middle;spacingLeft=4;spacingRight=4;overflow=hidden;points=[[0,0.5],[1,0.5]];portConstraint=eastwest;rotatable=0;whiteSpace=wrap;html=1;fontSize=18;" vertex="1" parent="oknRgU-uiOePaTJj_Vg3-2">
          <mxGeometry y="70" width="140" height="40" as="geometry" />
        </mxCell>
        <mxCell id="oknRgU-uiOePaTJj_Vg3-5" value="Customer information" style="text;html=1;align=center;verticalAlign=middle;whiteSpace=wrap;rounded=0;" vertex="1" parent="1">
          <mxGeometry x="135" y="390" width="130" height="30" as="geometry" />
        </mxCell>
        <mxCell id="oknRgU-uiOePaTJj_Vg3-6" value="crm_prd_info" style="swimlane;fontStyle=0;childLayout=stackLayout;horizontal=1;startSize=30;horizontalStack=0;resizeParent=1;resizeParentMax=0;resizeLast=0;collapsible=1;marginBottom=0;whiteSpace=wrap;html=1;rounded=1;fillColor=#d5e8d4;strokeColor=#82b366;fontSize=18;" vertex="1" parent="1">
          <mxGeometry x="130" y="220" width="140" height="70" as="geometry" />
        </mxCell>
        <mxCell id="oknRgU-uiOePaTJj_Vg3-7" value="prd_key" style="text;strokeColor=none;fillColor=none;align=left;verticalAlign=middle;spacingLeft=4;spacingRight=4;overflow=hidden;points=[[0,0.5],[1,0.5]];portConstraint=eastwest;rotatable=0;whiteSpace=wrap;html=1;fontSize=18;" vertex="1" parent="oknRgU-uiOePaTJj_Vg3-6">
          <mxGeometry y="30" width="140" height="40" as="geometry" />
        </mxCell>
        <mxCell id="oknRgU-uiOePaTJj_Vg3-8" value="current &amp;amp; history product information" style="text;html=1;align=center;verticalAlign=middle;whiteSpace=wrap;rounded=0;" vertex="1" parent="1">
          <mxGeometry x="140" y="180" width="120" height="30" as="geometry" />
        </mxCell>
        <mxCell id="oknRgU-uiOePaTJj_Vg3-9" value="crm_cust_info" style="swimlane;fontStyle=0;childLayout=stackLayout;horizontal=1;startSize=30;horizontalStack=0;resizeParent=1;resizeParentMax=0;resizeLast=0;collapsible=1;marginBottom=0;whiteSpace=wrap;html=1;rounded=1;fillColor=#d5e8d4;strokeColor=#82b366;fontSize=18;" vertex="1" parent="1">
          <mxGeometry x="-140" y="280" width="140" height="110" as="geometry" />
        </mxCell>
        <mxCell id="oknRgU-uiOePaTJj_Vg3-10" value="prd_key" style="text;strokeColor=none;fillColor=none;align=left;verticalAlign=middle;spacingLeft=4;spacingRight=4;overflow=hidden;points=[[0,0.5],[1,0.5]];portConstraint=eastwest;rotatable=0;whiteSpace=wrap;html=1;fontSize=18;" vertex="1" parent="oknRgU-uiOePaTJj_Vg3-9">
          <mxGeometry y="30" width="140" height="40" as="geometry" />
        </mxCell>
        <mxCell id="oknRgU-uiOePaTJj_Vg3-11" value="cst_id" style="text;strokeColor=none;fillColor=none;align=left;verticalAlign=middle;spacingLeft=4;spacingRight=4;overflow=hidden;points=[[0,0.5],[1,0.5]];portConstraint=eastwest;rotatable=0;whiteSpace=wrap;html=1;fontSize=18;" vertex="1" parent="oknRgU-uiOePaTJj_Vg3-9">
          <mxGeometry y="70" width="140" height="40" as="geometry" />
        </mxCell>
        <mxCell id="oknRgU-uiOePaTJj_Vg3-12" value="customers &amp;amp; product transaction" style="text;html=1;align=center;verticalAlign=middle;whiteSpace=wrap;rounded=0;" vertex="1" parent="1">
          <mxGeometry x="-135" y="240" width="130" height="30" as="geometry" />
        </mxCell>
        <mxCell id="oknRgU-uiOePaTJj_Vg3-13" style="edgeStyle=orthogonalEdgeStyle;rounded=0;orthogonalLoop=1;jettySize=auto;html=1;entryX=0.026;entryY=0.15;entryDx=0;entryDy=0;entryPerimeter=0;" edge="1" parent="1" source="oknRgU-uiOePaTJj_Vg3-11" target="oknRgU-uiOePaTJj_Vg3-3">
          <mxGeometry relative="1" as="geometry" />
        </mxCell>
        <mxCell id="oknRgU-uiOePaTJj_Vg3-14" style="edgeStyle=orthogonalEdgeStyle;rounded=0;orthogonalLoop=1;jettySize=auto;html=1;entryX=-0.05;entryY=0.383;entryDx=0;entryDy=0;entryPerimeter=0;" edge="1" parent="1" source="oknRgU-uiOePaTJj_Vg3-10" target="oknRgU-uiOePaTJj_Vg3-7">
          <mxGeometry relative="1" as="geometry" />
        </mxCell>
        <mxCell id="oknRgU-uiOePaTJj_Vg3-15" value="erp_cust_az01" style="swimlane;fontStyle=0;childLayout=stackLayout;horizontal=1;startSize=30;horizontalStack=0;resizeParent=1;resizeParentMax=0;resizeLast=0;collapsible=1;marginBottom=0;whiteSpace=wrap;html=1;rounded=1;fillColor=#dae8fc;strokeColor=#6c8ebf;fontSize=18;" vertex="1" parent="1">
          <mxGeometry x="450" y="370" width="140" height="90" as="geometry" />
        </mxCell>
        <mxCell id="oknRgU-uiOePaTJj_Vg3-16" value="cid" style="text;strokeColor=none;fillColor=none;align=left;verticalAlign=middle;spacingLeft=4;spacingRight=4;overflow=hidden;points=[[0,0.5],[1,0.5]];portConstraint=eastwest;rotatable=0;whiteSpace=wrap;html=1;fontSize=18;" vertex="1" parent="oknRgU-uiOePaTJj_Vg3-15">
          <mxGeometry y="30" width="140" height="40" as="geometry" />
        </mxCell>
        <mxCell id="oknRgU-uiOePaTJj_Vg3-17" value="&lt;b&gt;&lt;font style=&quot;font-size: 16px;&quot;&gt;CUSTOMER&lt;/font&gt;&lt;/b&gt;" style="text;html=1;strokeColor=#b85450;fillColor=#f8cecc;align=center;verticalAlign=middle;whiteSpace=wrap;overflow=hidden;" vertex="1" parent="oknRgU-uiOePaTJj_Vg3-15">
          <mxGeometry y="70" width="140" height="20" as="geometry" />
        </mxCell>
        <mxCell id="oknRgU-uiOePaTJj_Vg3-18" value="Customer birthdate" style="text;html=1;align=center;verticalAlign=middle;whiteSpace=wrap;rounded=0;fillColor=none;strokeColor=none;" vertex="1" parent="1">
          <mxGeometry x="465" y="340" width="110" height="30" as="geometry" />
        </mxCell>
        <mxCell id="oknRgU-uiOePaTJj_Vg3-19" style="edgeStyle=orthogonalEdgeStyle;rounded=0;orthogonalLoop=1;jettySize=auto;html=1;entryX=0;entryY=0.5;entryDx=0;entryDy=0;" edge="1" parent="1" source="oknRgU-uiOePaTJj_Vg3-4" target="oknRgU-uiOePaTJj_Vg3-16">
          <mxGeometry relative="1" as="geometry" />
        </mxCell>
        <mxCell id="oknRgU-uiOePaTJj_Vg3-20" value="erp_loc_a101" style="swimlane;fontStyle=0;childLayout=stackLayout;horizontal=1;startSize=30;horizontalStack=0;resizeParent=1;resizeParentMax=0;resizeLast=0;collapsible=1;marginBottom=0;whiteSpace=wrap;html=1;rounded=1;fillColor=#dae8fc;strokeColor=#6c8ebf;fontSize=18;" vertex="1" parent="1">
          <mxGeometry x="450" y="490" width="140" height="90" as="geometry" />
        </mxCell>
        <mxCell id="oknRgU-uiOePaTJj_Vg3-21" value="cid" style="text;strokeColor=none;fillColor=none;align=left;verticalAlign=middle;spacingLeft=4;spacingRight=4;overflow=hidden;points=[[0,0.5],[1,0.5]];portConstraint=eastwest;rotatable=0;whiteSpace=wrap;html=1;fontSize=18;" vertex="1" parent="oknRgU-uiOePaTJj_Vg3-20">
          <mxGeometry y="30" width="140" height="40" as="geometry" />
        </mxCell>
        <mxCell id="oknRgU-uiOePaTJj_Vg3-22" value="&lt;b&gt;&lt;font style=&quot;font-size: 16px;&quot;&gt;CUSTOMER&lt;/font&gt;&lt;/b&gt;" style="text;html=1;strokeColor=#b85450;fillColor=#f8cecc;align=center;verticalAlign=middle;whiteSpace=wrap;overflow=hidden;" vertex="1" parent="oknRgU-uiOePaTJj_Vg3-20">
          <mxGeometry y="70" width="140" height="20" as="geometry" />
        </mxCell>
        <mxCell id="oknRgU-uiOePaTJj_Vg3-23" value="Customer location" style="text;html=1;align=center;verticalAlign=middle;whiteSpace=wrap;rounded=0;fillColor=none;strokeColor=none;" vertex="1" parent="1">
          <mxGeometry x="465" y="459" width="110" height="30" as="geometry" />
        </mxCell>
        <mxCell id="oknRgU-uiOePaTJj_Vg3-24" style="edgeStyle=orthogonalEdgeStyle;rounded=0;orthogonalLoop=1;jettySize=auto;html=1;" edge="1" parent="1" source="oknRgU-uiOePaTJj_Vg3-4" target="oknRgU-uiOePaTJj_Vg3-21">
          <mxGeometry relative="1" as="geometry" />
        </mxCell>
        <mxCell id="oknRgU-uiOePaTJj_Vg3-25" value="erp_px_cat_g1v2" style="swimlane;fontStyle=0;childLayout=stackLayout;horizontal=1;startSize=30;horizontalStack=0;resizeParent=1;resizeParentMax=0;resizeLast=0;collapsible=1;marginBottom=0;whiteSpace=wrap;html=1;rounded=1;fillColor=#dae8fc;strokeColor=#6c8ebf;fontSize=18;" vertex="1" parent="1">
          <mxGeometry x="460" y="220" width="140" height="90" as="geometry" />
        </mxCell>
        <mxCell id="oknRgU-uiOePaTJj_Vg3-26" value="prd_key" style="text;strokeColor=none;fillColor=none;align=left;verticalAlign=middle;spacingLeft=4;spacingRight=4;overflow=hidden;points=[[0,0.5],[1,0.5]];portConstraint=eastwest;rotatable=0;whiteSpace=wrap;html=1;fontSize=18;" vertex="1" parent="oknRgU-uiOePaTJj_Vg3-25">
          <mxGeometry y="30" width="140" height="40" as="geometry" />
        </mxCell>
        <mxCell id="oknRgU-uiOePaTJj_Vg3-27" value="&lt;b&gt;&lt;font style=&quot;font-size: 16px;&quot;&gt;PRODUCT&lt;/font&gt;&lt;/b&gt;" style="text;html=1;strokeColor=#d6b656;fillColor=#fff2cc;align=center;verticalAlign=middle;whiteSpace=wrap;overflow=hidden;" vertex="1" parent="oknRgU-uiOePaTJj_Vg3-25">
          <mxGeometry y="70" width="140" height="20" as="geometry" />
        </mxCell>
        <mxCell id="oknRgU-uiOePaTJj_Vg3-28" value="product categories" style="text;html=1;align=center;verticalAlign=middle;whiteSpace=wrap;rounded=0;fillColor=none;strokeColor=none;" vertex="1" parent="1">
          <mxGeometry x="475" y="190" width="110" height="30" as="geometry" />
        </mxCell>
        <mxCell id="oknRgU-uiOePaTJj_Vg3-29" style="edgeStyle=orthogonalEdgeStyle;rounded=0;orthogonalLoop=1;jettySize=auto;html=1;entryX=0;entryY=0.5;entryDx=0;entryDy=0;" edge="1" parent="1" source="oknRgU-uiOePaTJj_Vg3-7" target="oknRgU-uiOePaTJj_Vg3-26">
          <mxGeometry relative="1" as="geometry" />
        </mxCell>
        <mxCell id="oknRgU-uiOePaTJj_Vg3-30" value="&lt;font face=&quot;Georgia&quot; style=&quot;font-size: 29px;&quot;&gt;Integration Model&lt;/font&gt;(How the tables are related)" style="text;html=1;align=left;verticalAlign=middle;whiteSpace=wrap;rounded=0;" vertex="1" parent="1">
          <mxGeometry x="-90" y="40" width="430" height="30" as="geometry" />
        </mxCell>
        <mxCell id="oknRgU-uiOePaTJj_Vg3-31" value="" style="rounded=1;whiteSpace=wrap;html=1;fillColor=none;arcSize=5;" vertex="1" parent="1">
          <mxGeometry x="-150" y="170" width="440" height="400" as="geometry" />
        </mxCell>
        <mxCell id="oknRgU-uiOePaTJj_Vg3-32" value="&lt;font style=&quot;font-size: 33px;&quot;&gt;CRM&lt;/font&gt;" style="text;html=1;align=center;verticalAlign=middle;whiteSpace=wrap;rounded=1;fillColor=#d5e8d4;strokeColor=#82b366;" vertex="1" parent="1">
          <mxGeometry x="35" y="150" width="95" height="30" as="geometry" />
        </mxCell>
        <mxCell id="oknRgU-uiOePaTJj_Vg3-33" value="&lt;span style=&quot;font-size: 33px;&quot;&gt;ERP&lt;/span&gt;" style="text;html=1;align=center;verticalAlign=middle;whiteSpace=wrap;rounded=1;fillColor=#d5e8d4;strokeColor=#82b366;" vertex="1" parent="1">
          <mxGeometry x="502.5" y="150" width="95" height="30" as="geometry" />
        </mxCell>
        <mxCell id="oknRgU-uiOePaTJj_Vg3-34" value="&lt;b&gt;&lt;font style=&quot;font-size: 16px;&quot;&gt;PRODUCT&lt;/font&gt;&lt;/b&gt;" style="text;html=1;strokeColor=#d6b656;fillColor=#fff2cc;align=center;verticalAlign=middle;whiteSpace=wrap;overflow=hidden;" vertex="1" parent="1">
          <mxGeometry x="130" y="280" width="140" height="20" as="geometry" />
        </mxCell>
        <mxCell id="oknRgU-uiOePaTJj_Vg3-35" value="&lt;b&gt;&lt;font style=&quot;font-size: 16px;&quot;&gt;CUSTOMER&lt;/font&gt;&lt;/b&gt;" style="text;html=1;strokeColor=#b85450;fillColor=#f8cecc;align=center;verticalAlign=middle;whiteSpace=wrap;overflow=hidden;" vertex="1" parent="1">
          <mxGeometry x="130" y="520" width="140" height="20" as="geometry" />
        </mxCell>
        <mxCell id="oknRgU-uiOePaTJj_Vg3-36" value="&lt;b&gt;&lt;font style=&quot;font-size: 16px;&quot;&gt;SALES&lt;/font&gt;&lt;/b&gt;" style="text;html=1;strokeColor=#9673a6;fillColor=#e1d5e7;align=center;verticalAlign=middle;whiteSpace=wrap;overflow=hidden;" vertex="1" parent="1">
          <mxGeometry x="-140" y="370" width="140" height="20" as="geometry" />
        </mxCell>
      </root>
    </mxGraphModel>
  </diagram>
</mxfile>
